<svg preserveAspectRatio="none" width="100%" height="100%" overflow="visible" style="display: block;" viewBox="0 0 15.4096 17.5902" fill="none" xmlns="http://www.w3.org/2000/svg">
<path id="Vector" d="M15.408 9.90185C15.4074 9.87945 15.4072 9.85704 15.4061 9.83437C15.4053 9.80797 15.4042 9.78156 15.4034 9.75516C15.4026 9.72609 15.4013 9.69675 15.3994 9.66768C15.3981 9.64047 15.3968 9.61273 15.3952 9.58526C15.393 9.55139 15.3909 9.51778 15.3882 9.48444C15.3855 9.44657 15.3826 9.4087 15.3789 9.37082C15.3687 9.25587 15.3559 9.14198 15.341 9.02862C15.3378 9.00755 15.3354 8.98675 15.3321 8.96621C15.3241 8.90887 15.3153 8.85179 15.3057 8.79498C15.3057 8.79285 15.3052 8.79045 15.3044 8.78831C15.3012 8.76724 15.2977 8.74617 15.2937 8.72483C15.2876 8.68749 15.2804 8.64989 15.2734 8.61308C15.2694 8.59068 15.2651 8.56854 15.2606 8.54667C15.2505 8.49572 15.2398 8.44505 15.2283 8.39437C15.2187 8.3501 15.208 8.30662 15.1981 8.26128C15.1915 8.23034 15.184 8.19967 15.1754 8.16926L15.1717 8.15566C15.1634 8.12099 15.1466 8.05831 15.1373 8.0239C15.1349 8.01403 15.1319 8.00417 15.129 7.99456C15.1255 7.98123 15.122 7.96816 15.118 7.95536C15.1098 7.92495 15.101 7.89508 15.0916 7.86467C15.0828 7.83427 15.0735 7.80439 15.0644 7.77399C15.0516 7.73211 15.038 7.69077 15.0243 7.64943C15.0086 7.60142 14.992 7.55341 14.9755 7.50594C14.9653 7.47633 14.9544 7.44699 14.9437 7.41739C14.9328 7.38778 14.9216 7.35844 14.9106 7.32937C14.8986 7.29683 14.8861 7.26456 14.8732 7.23255C14.8658 7.21282 14.8578 7.19335 14.85 7.17414C14.8332 7.1328 14.8161 7.09093 14.7985 7.04959C14.7972 7.04692 14.7958 7.04399 14.7945 7.04078C14.7809 7.00905 14.7673 6.97731 14.7531 6.94557C14.7328 6.90022 14.7123 6.85488 14.6909 6.80954C14.6834 6.79327 14.6754 6.77727 14.6679 6.761C14.6354 6.69192 14.6015 6.62364 14.5665 6.55589C14.547 6.51802 14.5273 6.48068 14.507 6.44307C14.4813 6.39506 14.4554 6.34759 14.429 6.30038C14.4122 6.27051 14.3951 6.2409 14.378 6.21156C14.3596 6.17929 14.3407 6.14782 14.3217 6.11608C14.3054 6.08914 14.2894 6.06274 14.2728 6.03606C14.2547 6.00699 14.2368 5.97792 14.2181 5.94938C14.2093 5.93498 14.2 5.92084 14.1909 5.90671C14.1815 5.8923 14.1725 5.87817 14.1626 5.8635C13.8062 5.3202 13.3825 4.82757 12.9036 4.39789C12.1871 3.7543 11.3475 3.25154 10.4262 2.93175C10.0754 2.81013 9.71314 2.71464 9.34072 2.64876C8.9296 2.57515 8.50647 2.53701 8.07479 2.53701C7.64338 2.53701 7.22025 2.57542 6.80913 2.64876C6.43671 2.71491 6.07418 2.81039 5.72366 2.93175C4.80184 3.25128 3.96225 3.75404 3.24625 4.39789C3.24011 4.40322 3.23397 4.40856 3.22783 4.41416C3.22703 4.41496 3.2265 4.41549 3.2257 4.41629V2.93202H3.22757V0H0V2.6485V17.4782H3.22757V15.7128C3.38721 15.8571 3.55273 15.9942 3.72412 16.1241C4.61871 16.8013 5.6684 17.275 6.80886 17.4785C7.21998 17.5521 7.64311 17.5902 8.07452 17.5902C8.50647 17.5902 8.92934 17.5518 9.34046 17.4785C10.4809 17.275 11.5306 16.8013 12.4252 16.1241C12.9757 15.7072 13.4674 15.2135 13.8852 14.6585C14.224 14.2077 14.5144 13.7164 14.7475 13.1929C14.9555 12.728 15.118 12.237 15.2299 11.7267C15.236 11.699 15.2419 11.6718 15.2475 11.644C15.255 11.6088 15.2619 11.5736 15.2686 11.5379C15.2748 11.5054 15.2814 11.4723 15.287 11.4392C15.2953 11.3939 15.3033 11.3485 15.3103 11.3027C15.3145 11.277 15.3185 11.2512 15.3223 11.2256C15.3271 11.197 15.3311 11.1688 15.3351 11.1402C15.3378 11.1205 15.3404 11.1005 15.3431 11.0807C15.3532 11.0055 15.362 10.9292 15.3695 10.8532C15.3722 10.8274 15.3749 10.8018 15.377 10.7756C15.3783 10.7628 15.3797 10.7497 15.3805 10.7369C15.3831 10.7057 15.3858 10.674 15.3879 10.6423C15.3906 10.6092 15.3927 10.5758 15.3949 10.5422C15.3984 10.4798 15.4016 10.4172 15.4042 10.3547C15.405 10.3235 15.4064 10.2923 15.4074 10.2609C15.4088 10.1952 15.4096 10.1291 15.4096 10.0632C15.4096 10.0363 15.4096 10.0091 15.409 9.98214C15.4088 9.95573 15.4085 9.92879 15.408 9.90185ZM12.3422 10.2611C12.3192 10.7772 12.2074 11.2706 12.0205 11.7267C11.7957 12.2783 11.4617 12.7755 11.0447 13.1929C10.2172 14.0229 9.06362 14.5374 7.78701 14.5374C6.5104 14.5374 5.35685 14.0226 4.52927 13.1929C4.11228 12.7755 3.77831 12.2786 3.55353 11.7267C3.36666 11.2706 3.25026 10.7772 3.2273 10.2611V10.0635C3.2273 9.62287 3.29217 9.19692 3.41364 8.79498C3.57488 8.25755 3.83677 7.76172 4.17822 7.32937C4.69773 6.66952 5.40144 6.15662 6.21327 5.86323C6.70368 5.68613 7.23386 5.58985 7.78701 5.58985C8.34015 5.58985 8.87007 5.68613 9.36075 5.86323C10.1726 6.15635 10.8763 6.66925 11.3958 7.32937C11.7372 7.76172 11.9991 8.25755 12.1604 8.79498C12.2821 9.19692 12.3467 9.6226 12.3467 10.0635C12.3467 10.1299 12.3454 10.1955 12.3422 10.2611Z" fill="var(--fill-0, #FF7B4C)"/>
</svg>
